<?xml version="1.0" encoding="UTF-8"?>
<svg version="1.1" xmlns="http://www.w3.org/2000/svg" width="512" height="512">
<path d="M0 0 C1.52774077 -0.00322687 3.05548125 -0.00659191 4.58322144 -0.01008606 C7.76837884 -0.01602873 10.95350933 -0.01793108 14.13867188 -0.01733398 C17.36366399 -0.01725287 20.58851364 -0.02417982 23.81347656 -0.0378418 C58.51939437 -0.1825117 58.51939437 -0.1825117 73.8671875 2.16796875 C74.93727051 2.329021 76.00735352 2.49007324 77.10986328 2.65600586 C79.88051374 3.11685228 82.62006978 3.64641408 85.3671875 4.23046875 C86.35291748 4.43961914 87.33864746 4.64876953 88.35424805 4.86425781 C120.6019551 12.08483576 151.37453296 25.98895677 176.8671875 47.16796875 C177.70491699 47.85560303 177.70491699 47.85560303 178.55957031 48.55712891 C191.237793 58.99282474 202.75467839 70.21066755 212.8671875 83.16796875 C213.97900391 84.49828125 213.97900391 84.49828125 215.11328125 85.85546875 C216.8671875 88.16796875 216.8671875 88.16796875 216.8671875 90.16796875 C218.07665039 90.15749512 219.28611328 90.14702148 220.53222656 90.13623047 C225.07223483 90.0996938 229.61223044 90.07694724 234.15234375 90.05810547 C236.1074442 90.0481239 238.06253002 90.03453388 240.01757812 90.01708984 C263.25294463 89.81514647 281.55773256 92.522386 299.1796875 109.04296875 C309.43679598 119.80246621 315.04725207 133.99859255 314.98071289 148.72192383 C314.98085892 149.5712146 314.98100494 150.42050537 314.9811554 151.29553223 C314.98046069 154.09288112 314.97268899 156.89016279 314.96484375 159.6875 C314.962978 161.63091495 314.96155484 163.57433038 314.96055603 165.51774597 C314.95674321 170.62557276 314.94692347 175.73337099 314.93585205 180.84118652 C314.92380994 186.97360392 314.91922981 193.10603088 314.91339874 199.23845673 C314.90371107 208.54831392 314.88454585 217.85810847 314.8671875 227.16796875 C294.4071875 227.16796875 273.9471875 227.16796875 252.8671875 227.16796875 C252.5371875 228.81796875 252.2071875 230.46796875 251.8671875 232.16796875 C247.9866788 241.62670871 243.23341928 249.01409681 235.8671875 256.16796875 C235.32707031 256.72871094 234.78695313 257.28945313 234.23046875 257.8671875 C223.21455532 268.43913465 207.24123595 272.69476073 192.36938477 272.59008789 C175.36296239 272.01073362 161.78164244 265.0191611 149.8671875 253.16796875 C149.31417969 252.64976562 148.76117188 252.1315625 148.19140625 251.59765625 C142.8103777 246.05708237 135.8671875 234.9249771 135.8671875 227.16796875 C85.0471875 227.16796875 34.2271875 227.16796875 -18.1328125 227.16796875 C-18.4628125 228.81796875 -18.7928125 230.46796875 -19.1328125 232.16796875 C-23.0133212 241.62670871 -27.76658072 249.01409681 -35.1328125 256.16796875 C-35.67292969 256.72871094 -36.21304688 257.28945313 -36.76953125 257.8671875 C-47.78544468 268.43913465 -63.75876405 272.69476073 -78.63061523 272.59008789 C-95.63656149 272.01074984 -109.22088496 265.01859992 -121.1328125 253.16796875 C-121.77089844 252.5646875 -122.40898438 251.96140625 -123.06640625 251.33984375 C-128.6512479 245.6181797 -135.1328125 235.34684115 -135.1328125 227.16796875 C-155.5928125 227.16796875 -176.0528125 227.16796875 -197.1328125 227.16796875 C-197.38152592 208.58264088 -197.58398059 189.99866883 -197.70274639 171.41209698 C-197.75936753 162.78120356 -197.83649941 154.15142063 -197.96264648 145.52124023 C-198.07259888 137.99538157 -198.14332515 130.47032733 -198.16778594 122.94368774 C-198.18207673 118.96118224 -198.2154328 114.9809771 -198.29584312 110.99921227 C-198.37107118 107.24328108 -198.39343458 103.49057416 -198.37699699 99.73396111 C-198.38142014 97.71389245 -198.44033568 95.69416761 -198.50143433 93.67501831 C-198.42191205 87.22354508 -197.72027609 83.11911347 -193.29340345 78.42402631 C-190.99992628 76.2202447 -188.59337797 74.18193628 -186.1328125 72.16796875 C-184.8782101 71.02717655 -183.62691991 69.88269737 -182.3828125 68.73046875 C-180.975257 67.53218322 -179.55699814 66.34644062 -178.1328125 65.16796875 C-177.6176709 64.7390332 -177.1025293 64.31009766 -176.57177734 63.86816406 C-162.95842659 52.58165322 -148.46248884 42.95998901 -133.1328125 34.16796875 C-132.50246094 33.80348633 -131.87210937 33.43900391 -131.22265625 33.06347656 C-91.51883651 10.3440686 -45.4615042 0.02300255 0 0 Z " fill="#FE7D43" transform="translate(197.1328125,119.83203125)"/>
<path d="M0 0 C6.63776372 0 12.24432646 0.48516762 18.6875 1.625 C20.19002319 1.89014404 20.19002319 1.89014404 21.72290039 2.16064453 C56.63982805 8.6119992 90.60335295 23.23917236 118 46 C118.55848633 46.45842285 119.11697266 46.9168457 119.69238281 47.38916016 C132.3706055 57.82485599 143.88749089 69.0426988 154 82 C155.11181641 83.3303125 155.11181641 83.3303125 156.24609375 84.6875 C158 87 158 87 158 89 C159.20946289 88.98952637 160.41892578 88.97905273 161.66503906 88.96826172 C166.20504733 88.93172505 170.74504294 88.90897849 175.28515625 88.89013672 C177.2402567 88.88015515 179.19534252 88.86656513 181.15039062 88.84912109 C204.38575713 88.64717772 222.69054506 91.35441725 240.3125 107.875 C250.56960848 118.63449746 256.18006457 132.8306238 256.11352539 147.55395508 C256.11367142 148.40324585 256.11381744 149.25253662 256.1139679 150.12756348 C256.11327319 152.92491237 256.10550149 155.72219404 256.09765625 158.51953125 C256.0957905 160.4629462 256.09436734 162.40636163 256.09336853 164.34977722 C256.08955571 169.45760401 256.07973597 174.56540224 256.06866455 179.67321777 C256.05662244 185.80563517 256.05204231 191.93806213 256.04621124 198.07048798 C256.03652357 207.38034517 256.01735835 216.69013972 256 226 C235.54 226 215.08 226 194 226 C193.67 227.65 193.34 229.3 193 231 C189.1194913 240.45873996 184.36623178 247.84612806 177 255 C176.45988281 255.56074219 175.91976562 256.12148438 175.36328125 256.69921875 C164.34736782 267.2711659 148.37404845 271.52679198 133.50219727 271.42211914 C116.49577489 270.84276487 102.91445494 263.85119235 91 252 C90.44699219 251.48179687 89.89398438 250.96359375 89.32421875 250.4296875 C83.9431902 244.88911362 77 233.75700835 77 226 C51.59 226 26.18 226 0 226 C0 151.42 0 76.84 0 0 Z " fill="#FE3F5C" transform="translate(256,121)"/>
<path d="M0 0 C13.31937187 9.75139468 22.17629684 24.73794314 25 41 C26.20986818 58.21735493 23.16671577 73.14833657 12.71875 87.03125 C10.5701593 89.47416819 8.35290905 91.75482488 6 94 C5.46117187 94.55816406 4.92234375 95.11632812 4.3671875 95.69140625 C-6.63245349 106.2764879 -22.63335347 110.52673989 -37.49780273 110.42211914 C-54.50374899 109.84278109 -68.08807246 102.85063117 -80 91 C-80.63808594 90.39671875 -81.27617188 89.7934375 -81.93359375 89.171875 C-92.67523131 78.16707929 -95.87023011 63.46217542 -96.375 48.625 C-96.08834922 32.10042546 -89.10694979 17.34226868 -77.73828125 5.5078125 C-54.97612213 -15.33855862 -25.4783166 -15.72164727 0 0 Z " fill="#016181" transform="translate(156,282)"/>
<path d="M0 0 C13.31937187 9.75139468 22.17629684 24.73794314 25 41 C26.20986818 58.21735493 23.16671577 73.14833657 12.71875 87.03125 C10.5701593 89.47416819 8.35290905 91.75482488 6 94 C5.46117187 94.55816406 4.92234375 95.11632812 4.3671875 95.69140625 C-6.63245349 106.2764879 -22.63335347 110.52673989 -37.49780273 110.42211914 C-54.50422511 109.84276487 -68.08554506 102.85119235 -80 91 C-80.55300781 90.48179687 -81.10601562 89.96359375 -81.67578125 89.4296875 C-90.01271366 80.84556841 -95.30627245 67.77828724 -96 56 C-96.07992188 54.81792969 -96.15984375 53.63585937 -96.2421875 52.41796875 C-96.82803554 35.68683792 -91.156633 20.74725194 -80.1875 8.125 C-57.79555433 -15.11128752 -26.56262728 -16.3907319 0 0 Z " fill="#024761" transform="translate(427,282)"/>
<path d="M0 0 C4.74356243 0.03669107 9.48724636 0.04996386 14.23091125 0.06735992 C21.36782826 0.09605536 28.50397212 0.15368696 35.64093018 0.20599365 C35.64093018 20.00599365 35.64093018 39.80599365 35.64093018 60.20599365 C17.6855532 60.32632008 17.6855532 60.32632008 9.9085083 60.35247803 C4.64482311 60.3702676 -0.61870253 60.39108599 -5.88226318 60.43231201 C-10.13577687 60.46541055 -14.38911896 60.48295043 -18.64275169 60.49062538 C-20.24869671 60.49607996 -21.8546346 60.50672427 -23.46050453 60.52318382 C-38.86144422 60.67445693 -54.05971288 58.95473313 -68.85906982 54.51849365 C-69.72378906 54.26358154 -70.5885083 54.00866943 -71.47943115 53.74603271 C-88.2968717 48.61762476 -108.21474469 41.26784495 -121.35906982 29.20599365 C-121.35906982 28.54599365 -121.35906982 27.88599365 -121.35906982 27.20599365 C-103.73368594 18.46077616 -86.50929576 11.33475702 -67.42156982 6.45599365 C-66.32771973 6.1740918 -65.23386963 5.89218994 -64.10687256 5.60174561 C-60.53678023 4.72717614 -56.95889384 3.94886184 -53.35906982 3.20599365 C-52.70182922 3.06446869 -52.04458862 2.92294373 -51.36743164 2.77713013 C-34.42777303 -0.74797587 -17.20649442 -0.1475412 0 0 Z " fill="#F4F0EF" transform="translate(205.35906982421875,150.79400634765625)"/>
<path d="M0 0 C6.94040382 0.69404038 12.78472206 1.48632386 19.3125 3.5 C20.59229736 3.89203613 20.59229736 3.89203613 21.89794922 4.29199219 C53.55361624 14.32985923 81.42572903 31.57180339 104 56 C104 56.33 104 56.66 104 57 C69.68 57 35.36 57 0 57 C0 38.19 0 19.38 0 0 Z " fill="#F4EFEF" transform="translate(271,154)"/>
<path d="M0 0 C7.15474385 4.09014868 13.21551926 10.15797901 15.91796875 18.08984375 C17.62290246 27.65084453 17.42640761 36.73929239 12.078125 45.0546875 C7.08746309 51.48389941 1.27449868 55.35132118 -6.68359375 57.32421875 C-15.95563817 58.44050911 -23.94445168 57.25332371 -31.71484375 51.93359375 C-39.21438856 45.89582462 -42.52902092 38.46500073 -44.04296875 29.1015625 C-44.54660134 21.39318597 -41.44427219 14.10922131 -36.95703125 7.95703125 C-27.12997627 -2.75971595 -13.33500553 -6.10028343 0 0 Z " fill="#F1EFEF" transform="translate(133.68359375,303.67578125)"/>
<path d="M0 0 C8.333718 -0.50346786 15.57826377 2.05614453 22.29296875 6.98828125 C28.43840913 12.61969781 31.42096844 18.6093251 32.26953125 26.8828125 C32.60350593 37.3195213 30.76424877 44.89614639 23.671875 52.65625 C16.30805329 59.16230786 8.83634696 60.60027477 -0.71484375 60.50390625 C-8.75305357 59.84640291 -15.83262812 56.34613667 -21.10546875 50.2265625 C-27.64222026 41.80560324 -28.2996723 33.44014553 -27.10546875 23.2265625 C-25.44292741 15.43724842 -21.31277082 10.10453309 -15.10546875 5.2265625 C-10.22076274 2.12302001 -5.72776828 0.61634612 0 0 Z " fill="#EAE8E6" transform="translate(389.10546875,300.7734375)"/>
<path d="M0 0 C4.95 0 9.9 0 15 0 C15 44.88 15 89.76 15 136 C10.05 136 5.1 136 0 136 C0 91.12 0 46.24 0 0 Z " fill="#EE0000" transform="translate(256,211)"/>
<path d="M0 0 C4.95 0 9.9 0 15 0 C15 44.88 15 89.76 15 136 C10.05 136 5.1 136 0 136 C0 91.12 0 46.24 0 0 Z " fill="#FF3F5C" transform="translate(241,211)"/>
<path d="M0 0 C14.85 0 29.7 0 45 0 C45 9.9 45 19.8 45 30 C30.15 30 15.3 30 0 30 C0 20.1 0 10.2 0 0 Z " fill="#FFE705" transform="translate(0,241)"/>
<path d="M0 0 C12.54 0 25.08 0 38 0 C43.64365298 12.41603655 45 16.50703367 45 30 C30.15 30 15.3 30 0 30 C0 20.1 0 10.2 0 0 Z " fill="#FFCB00" transform="translate(467,241)"/>
</svg>
